<svg width="62" height="64" viewBox="0 0 62 64" fill="none" xmlns="http://www.w3.org/2000/svg">
<g clip-path="url(#clip0_2_36)">
<path d="M8.51477 7.95998C8.51477 5.86654 9.31274 3.85884 10.7331 2.37855C12.1535 0.898267 14.08 0.0666504 16.0887 0.0666504L46.3846 0.0666504C48.3933 0.0666504 50.3198 0.898267 51.7402 2.37855C53.1606 3.85884 53.9586 5.86654 53.9586 7.95998V55.32C53.9586 57.4134 53.1606 59.4211 51.7402 60.9014C50.3198 62.3817 48.3933 63.2133 46.3846 63.2133H16.0887C14.08 63.2133 12.1535 62.3817 10.7331 60.9014C9.31274 59.4211 8.51477 57.4134 8.51477 55.32V7.95998ZM16.0887 9.93332V17.8267C16.0887 18.35 16.2882 18.8519 16.6433 19.222C16.9984 19.5921 17.48 19.8 17.9822 19.8H44.4911C44.9933 19.8 45.4749 19.5921 45.83 19.222C46.1851 18.8519 46.3846 18.35 46.3846 17.8267V9.93332C46.3846 9.40996 46.1851 8.90803 45.83 8.53796C45.4749 8.16789 44.9933 7.95998 44.4911 7.95998H17.9822C17.48 7.95998 16.9984 8.16789 16.6433 8.53796C16.2882 8.90803 16.0887 9.40996 16.0887 9.93332ZM16.0887 25.72V29.6667C16.0887 30.19 16.2882 30.6919 16.6433 31.062C16.9984 31.4321 17.48 31.64 17.9822 31.64H21.7692C22.2714 31.64 22.753 31.4321 23.1081 31.062C23.4632 30.6919 23.6627 30.19 23.6627 29.6667V25.72C23.6627 25.1966 23.4632 24.6947 23.1081 24.3246C22.753 23.9546 22.2714 23.7467 21.7692 23.7467H17.9822C17.48 23.7467 16.9984 23.9546 16.6433 24.3246C16.2882 24.6947 16.0887 25.1966 16.0887 25.72ZM17.9822 35.5867C17.48 35.5867 16.9984 35.7946 16.6433 36.1646C16.2882 36.5347 16.0887 37.0366 16.0887 37.56V41.5067C16.0887 42.03 16.2882 42.5319 16.6433 42.902C16.9984 43.2721 17.48 43.48 17.9822 43.48H21.7692C22.2714 43.48 22.753 43.2721 23.1081 42.902C23.4632 42.5319 23.6627 42.03 23.6627 41.5067V37.56C23.6627 37.0366 23.4632 36.5347 23.1081 36.1646C22.753 35.7946 22.2714 35.5867 21.7692 35.5867H17.9822ZM16.0887 49.4V53.3466C16.0887 53.87 16.2882 54.3719 16.6433 54.742C16.9984 55.1121 17.48 55.32 17.9822 55.32H21.7692C22.2714 55.32 22.753 55.1121 23.1081 54.742C23.4632 54.3719 23.6627 53.87 23.6627 53.3466V49.4C23.6627 48.8766 23.4632 48.3747 23.1081 48.0046C22.753 47.6346 22.2714 47.4267 21.7692 47.4267H17.9822C17.48 47.4267 16.9984 47.6346 16.6433 48.0046C16.2882 48.3747 16.0887 48.8766 16.0887 49.4ZM29.3432 23.7467C28.841 23.7467 28.3594 23.9546 28.0043 24.3246C27.6492 24.6947 27.4497 25.1966 27.4497 25.72V29.6667C27.4497 30.19 27.6492 30.6919 28.0043 31.062C28.3594 31.4321 28.841 31.64 29.3432 31.64H33.1302C33.6323 31.64 34.114 31.4321 34.4691 31.062C34.8242 30.6919 35.0236 30.19 35.0236 29.6667V25.72C35.0236 25.1966 34.8242 24.6947 34.4691 24.3246C34.114 23.9546 33.6323 23.7467 33.1302 23.7467H29.3432ZM27.4497 37.56V41.5067C27.4497 42.03 27.6492 42.5319 28.0043 42.902C28.3594 43.2721 28.841 43.48 29.3432 43.48H33.1302C33.6323 43.48 34.114 43.2721 34.4691 42.902C34.8242 42.5319 35.0236 42.03 35.0236 41.5067V37.56C35.0236 37.0366 34.8242 36.5347 34.4691 36.1646C34.114 35.7946 33.6323 35.5867 33.1302 35.5867H29.3432C28.841 35.5867 28.3594 35.7946 28.0043 36.1646C27.6492 36.5347 27.4497 37.0366 27.4497 37.56ZM29.3432 47.4267C28.841 47.4267 28.3594 47.6346 28.0043 48.0046C27.6492 48.3747 27.4497 48.8766 27.4497 49.4V53.3466C27.4497 53.87 27.6492 54.3719 28.0043 54.742C28.3594 55.1121 28.841 55.32 29.3432 55.32H33.1302C33.6323 55.32 34.114 55.1121 34.4691 54.742C34.8242 54.3719 35.0236 53.87 35.0236 53.3466V49.4C35.0236 48.8766 34.8242 48.3747 34.4691 48.0046C34.114 47.6346 33.6323 47.4267 33.1302 47.4267H29.3432ZM38.8106 25.72V29.6667C38.8106 30.19 39.0101 30.6919 39.3652 31.062C39.7203 31.4321 40.2019 31.64 40.7041 31.64H44.4911C44.9933 31.64 45.4749 31.4321 45.83 31.062C46.1851 30.6919 46.3846 30.19 46.3846 29.6667V25.72C46.3846 25.1966 46.1851 24.6947 45.83 24.3246C45.4749 23.9546 44.9933 23.7467 44.4911 23.7467H40.7041C40.2019 23.7467 39.7203 23.9546 39.3652 24.3246C39.0101 24.6947 38.8106 25.1966 38.8106 25.72ZM40.7041 35.5867C40.2019 35.5867 39.7203 35.7946 39.3652 36.1646C39.0101 36.5347 38.8106 37.0366 38.8106 37.56V53.3466C38.8106 53.87 39.0101 54.3719 39.3652 54.742C39.7203 55.1121 40.2019 55.32 40.7041 55.32H44.4911C44.9933 55.32 45.4749 55.1121 45.83 54.742C46.1851 54.3719 46.3846 53.87 46.3846 53.3466V37.56C46.3846 37.0366 46.1851 36.5347 45.83 36.1646C45.4749 35.7946 44.9933 35.5867 44.4911 35.5867H40.7041Z" fill="white"/>
</g>
<defs>
<clipPath id="clip0_2_36">
<rect width="60.5917" height="63.1467" fill="white" transform="translate(0.940796 0.0666504)"/>
</clipPath>
</defs>
</svg>
