<svg width="32" height="32" viewBox="0 0 32 32" fill="none" xmlns="http://www.w3.org/2000/svg">
<path d="M5.33337 20.0001C4.22226 20.0001 3.27782 19.6112 2.50004 18.8334C1.72226 18.0556 1.33337 17.1112 1.33337 16.0001C1.33337 14.889 1.72226 13.9445 2.50004 13.1667C3.27782 12.389 4.22226 12.0001 5.33337 12.0001V9.33342C5.33337 8.60008 5.59449 7.9723 6.11671 7.45008C6.63893 6.92786 7.26671 6.66675 8.00004 6.66675H12C12 5.55564 12.3889 4.61119 13.1667 3.83341C13.9445 3.05564 14.8889 2.66675 16 2.66675C17.1112 2.66675 18.0556 3.05564 18.8334 3.83341C19.6112 4.61119 20 5.55564 20 6.66675H24C24.7334 6.66675 25.3612 6.92786 25.8834 7.45008C26.4056 7.9723 26.6667 8.60008 26.6667 9.33342V12.0001C27.7778 12.0001 28.7223 12.389 29.5 13.1667C30.2778 13.9445 30.6667 14.889 30.6667 16.0001C30.6667 17.1112 30.2778 18.0556 29.5 18.8334C28.7223 19.6112 27.7778 20.0001 26.6667 20.0001V25.3334C26.6667 26.0667 26.4056 26.6945 25.8834 27.2167C25.3612 27.739 24.7334 28.0001 24 28.0001H8.00004C7.26671 28.0001 6.63893 27.739 6.11671 27.2167C5.59449 26.6945 5.33337 26.0667 5.33337 25.3334V20.0001ZM12 17.3334C12.5556 17.3334 13.0278 17.139 13.4167 16.7501C13.8056 16.3612 14 15.889 14 15.3334C14 14.7779 13.8056 14.3056 13.4167 13.9167C13.0278 13.5279 12.5556 13.3334 12 13.3334C11.4445 13.3334 10.9723 13.5279 10.5834 13.9167C10.1945 14.3056 10 14.7779 10 15.3334C10 15.889 10.1945 16.3612 10.5834 16.7501C10.9723 17.139 11.4445 17.3334 12 17.3334ZM20 17.3334C20.5556 17.3334 21.0278 17.139 21.4167 16.7501C21.8056 16.3612 22 15.889 22 15.3334C22 14.7779 21.8056 14.3056 21.4167 13.9167C21.0278 13.5279 20.5556 13.3334 20 13.3334C19.4445 13.3334 18.9723 13.5279 18.5834 13.9167C18.1945 14.3056 18 14.7779 18 15.3334C18 15.889 18.1945 16.3612 18.5834 16.7501C18.9723 17.139 19.4445 17.3334 20 17.3334ZM10.6667 22.6667H21.3334V20.0001H10.6667V22.6667ZM8.00004 25.3334H24V9.33342H8.00004V25.3334Z" fill="black"/>
</svg>
