<svg width="28" height="26" viewBox="0 0 28 26" fill="none" xmlns="http://www.w3.org/2000/svg">
<path d="M5.47445 15.5348H16.4233V12.9456H5.47445V15.5348ZM5.47445 11.6511H21.8978V9.06195H5.47445V11.6511ZM5.47445 7.76738H21.8978V5.17826H5.47445V7.76738ZM0 25.8913V2.58913C0 1.87712 0.26802 1.26759 0.804059 0.760556C1.3401 0.253519 1.98449 0 2.73722 0H24.635C25.3877 0 26.0321 0.253519 26.5682 0.760556C27.1042 1.26759 27.3722 1.87712 27.3722 2.58913V18.1239C27.3722 18.8359 27.1042 19.4454 26.5682 19.9525C26.0321 20.4595 25.3877 20.713 24.635 20.713H5.47445L0 25.8913ZM4.31113 18.1239H24.635V2.58913H2.73722V19.5803L4.31113 18.1239Z" fill="white"/>
</svg>
