<svg width="48" height="55" viewBox="0 0 48 55" fill="none" xmlns="http://www.w3.org/2000/svg">
<path d="M18.3729 44.508C18.3729 48.2912 15.0592 51.3554 10.9764 51.3554C6.89357 51.3554 3.57996 48.2912 3.57996 44.508C3.57996 40.7283 6.89357 37.6606 10.9764 37.6606C15.0592 37.6606 18.3729 40.7283 18.3729 44.508ZM45.0001 37.6606C45.0001 41.4438 41.6865 44.508 37.6036 44.508C33.5208 44.508 30.2072 41.4438 30.2072 37.6606C30.2072 33.8774 33.5208 30.8132 37.6036 30.8132C41.6865 30.8132 45.0001 33.8774 45.0001 37.6606Z" fill="white"/>
<path fill-rule="evenodd" clip-rule="evenodd" d="M42.0414 37.6607V6.84741H45V37.6607H42.0414ZM18.3728 10.2711V44.5081H15.4142V10.2711H18.3728Z" fill="white"/>
<path d="M15.4142 9.94591C15.4142 9.09715 15.6866 8.27865 16.1786 7.64919C16.6706 7.01974 17.3471 6.6242 18.0769 6.53933L41.7455 3.80036C42.157 3.75252 42.5725 3.80499 42.9653 3.95441C43.3581 4.10382 43.7194 4.34686 44.0261 4.66783C44.3327 4.98881 44.5778 5.38061 44.7456 5.81795C44.9133 6.25529 45 6.72846 45 7.20695V10.2712L15.4142 13.6949V9.94591Z" fill="white"/>
</svg>
