<svg width="32" height="32" viewBox="0 0 32 32" fill="none" xmlns="http://www.w3.org/2000/svg">
<path d="M31.004 3.88005C31.1909 4.0675 31.2958 4.32138 31.2958 4.58605C31.2958 4.85073 31.1909 5.10461 31.004 5.29205L28.918 7.38005L24.918 3.38005L27.004 1.29205C27.1916 1.10458 27.4459 0.999268 27.711 0.999268C27.9762 0.999268 28.2305 1.10458 28.418 1.29205L31.004 3.87805V3.88005ZM27.504 8.79205L23.504 4.79205L9.87804 18.4201C9.76797 18.5301 9.6851 18.6643 9.63604 18.8121L8.02604 23.6401C7.99684 23.7281 7.9927 23.8225 8.01407 23.9127C8.03544 24.0029 8.08148 24.0855 8.14706 24.151C8.21263 24.2166 8.29515 24.2627 8.38538 24.284C8.47562 24.3054 8.57002 24.3013 8.65804 24.2721L13.486 22.6621C13.6336 22.6136 13.7678 22.5314 13.878 22.4221L27.504 8.79405V8.79205Z" fill="white"/>
<path fill-rule="evenodd" clip-rule="evenodd" d="M2 27C2 27.7956 2.31607 28.5587 2.87868 29.1213C3.44129 29.6839 4.20435 30 5 30H27C27.7956 30 28.5587 29.6839 29.1213 29.1213C29.6839 28.5587 30 27.7956 30 27V15C30 14.7348 29.8946 14.4804 29.7071 14.2929C29.5196 14.1054 29.2652 14 29 14C28.7348 14 28.4804 14.1054 28.2929 14.2929C28.1054 14.4804 28 14.7348 28 15V27C28 27.2652 27.8946 27.5196 27.7071 27.7071C27.5196 27.8946 27.2652 28 27 28H5C4.73478 28 4.48043 27.8946 4.29289 27.7071C4.10536 27.5196 4 27.2652 4 27V5C4 4.73478 4.10536 4.48043 4.29289 4.29289C4.48043 4.10536 4.73478 4 5 4H18C18.2652 4 18.5196 3.89464 18.7071 3.70711C18.8946 3.51957 19 3.26522 19 3C19 2.73478 18.8946 2.48043 18.7071 2.29289C18.5196 2.10536 18.2652 2 18 2H5C4.20435 2 3.44129 2.31607 2.87868 2.87868C2.31607 3.44129 2 4.20435 2 5V27Z" fill="white"/>
</svg>
