<svg width="105" height="107" viewBox="0 0 105 107" fill="none" xmlns="http://www.w3.org/2000/svg">
<path fill-rule="evenodd" clip-rule="evenodd" d="M9.53189 107H29.6045L37.7588 87.2157L20.557 81.8443L9.53189 107ZM67.8474 87.2157L76.0017 107H96.0743L85.0492 81.8443L67.8474 87.2157ZM99.2004 10.7H61.5026L58.6028 0H47.0035L44.1036 10.7H6.40587C4.86771 10.7 3.39254 11.2637 2.3049 12.267C1.21725 13.2703 0.606219 14.6311 0.606219 16.05V74.9C0.606219 76.3189 1.21725 77.6797 2.3049 78.683C3.39254 79.6863 4.86771 80.25 6.40587 80.25H99.2004C100.739 80.25 102.214 79.6863 103.301 78.683C104.389 77.6797 105 76.3189 105 74.9V16.05C105 14.6311 104.389 13.2703 103.301 12.267C102.214 11.2637 100.739 10.7 99.2004 10.7Z" fill="#E4C9F9"/>
<path d="M52.8668 62.6097C62.3704 62.6097 70.0746 54.8412 70.0746 45.2583C70.0746 35.6754 62.3704 27.907 52.8668 27.907C43.3632 27.907 35.6591 35.6754 35.6591 45.2583C35.6591 54.8412 43.3632 62.6097 52.8668 62.6097Z" stroke="black" stroke-width="6.66667" stroke-linecap="round" stroke-linejoin="round"/>
<path d="M52.8668 27.907C51.8526 27.907 50.88 28.3132 50.1628 29.0363C49.4457 29.7594 49.0428 30.7402 49.0428 31.7628C49.0428 32.7855 49.4457 33.7662 50.1628 34.4893C50.88 35.2125 51.8526 35.6187 52.8668 35.6187M47.1309 41.4025H47.15H47.1309ZM58.6027 41.4025H58.6218H58.6027ZM48.0868 51.0421C48.7099 51.6833 49.4536 52.1928 50.2744 52.5405C51.0952 52.8883 51.9765 53.0674 52.8668 53.0674C53.7571 53.0674 54.6384 52.8883 55.4592 52.5405C56.2799 52.1928 57.0236 51.6833 57.6467 51.0421H48.0868Z" stroke="black" stroke-width="6.66667" stroke-linecap="round" stroke-linejoin="round"/>
</svg>
