<svg width="41" height="41" viewBox="0 0 41 41" fill="none" xmlns="http://www.w3.org/2000/svg">
<path d="M40.1432 1.06519C40.3506 1.24209 40.4951 1.48128 40.5552 1.74704C40.6153 2.0128 40.5878 2.29086 40.4767 2.53968C36.6115 11.1998 28.4945 23.1674 22.5527 29.4037C20.8873 31.1483 18.8333 32.4753 16.5578 33.2768C16.5124 33.8499 16.4063 34.6351 16.1536 35.4683C15.6458 37.1322 14.4686 39.2025 11.8387 39.8615C9.29181 40.4676 6.65232 40.5807 4.06283 40.1948C3.58132 40.1187 3.10658 40.0048 2.64306 39.8539C2.21422 39.7235 1.81453 39.5117 1.46581 39.2303C1.23584 39.0348 1.05864 38.7848 0.950444 38.5031C0.816344 38.1417 0.819941 37.7436 0.960549 37.3846C1.20055 36.7661 1.75886 36.4252 2.12517 36.2434C3.12052 35.746 3.7041 35.0997 4.31546 34.1579C4.55545 33.7943 4.78029 33.4081 5.0405 32.9662L5.33608 32.4663C5.71754 31.8225 6.15964 31.1029 6.71543 30.3253C8.04931 28.4594 9.7495 27.9898 11.1263 28.063C11.4446 28.0807 11.7402 28.1261 12.0055 28.1842C12.1621 27.7499 12.3642 27.2248 12.6067 26.6491C13.2661 25.0863 14.269 23.0664 15.6054 21.4253C21.1026 14.684 31.2179 5.7563 38.6376 0.964201C38.866 0.816851 39.1359 0.747091 39.4072 0.765286C39.6784 0.783481 39.9366 0.88866 40.1432 1.06519Z" fill="white"/>
</svg>
